<svg width="191" height="191" viewBox="0 0 191 191" fill="none" xmlns="http://www.w3.org/2000/svg">
<circle cx="95.5" cy="95.5" r="95.5" fill="#EDBC5A"/>
<rect width="135" height="90" transform="translate(28 50)" fill="#EDBC5A"/>
<g clip-path="url(#clip0_1_784)" filter="url(#filter0_d_1_784)">
<path d="M110.334 50.2436C110.107 50.0177 109.771 49.9411 109.468 50.0467L81.1345 60.0468C80.8006 60.1643 80.5775 60.4799 80.5781 60.8336C80.5784 61.1873 80.8018 61.5022 81.1357 61.6194L93.4615 65.9377L99.1131 60.2855C99.44 59.9684 99.9606 59.9724 100.283 60.2943C100.605 60.6163 100.609 61.1369 100.291 61.4638L94.6401 67.116L98.9584 79.4427C99.0753 79.776 99.3896 79.9991 99.7427 80H99.7443C100.098 80.0003 100.413 79.7775 100.53 79.4443L110.53 51.1106C110.636 50.8078 110.56 50.4712 110.334 50.2436Z" fill="#141414"/>
</g>
<path d="M62.6459 105.36H68.5459V108H59.8859V94H68.4459V96.64H62.6459V99.62H67.9459V102.22H62.6459V105.36ZM79.5914 108H76.6114L74.4514 104.96L72.2714 108H69.2914L72.9514 102.9L69.4514 98H72.4314L74.4514 100.82L76.4714 98H79.4314L75.9314 102.88L79.5914 108ZM86.6992 97.72C88.0459 97.72 89.1926 98.2333 90.1392 99.26C91.0992 100.273 91.5792 101.52 91.5792 103C91.5792 104.48 91.0992 105.733 90.1392 106.76C89.1926 107.773 88.0459 108.28 86.6992 108.28C85.2992 108.28 84.2192 107.793 83.4592 106.82V112H80.8792V98H83.4592V99.18C84.2192 98.2067 85.2992 97.72 86.6992 97.72ZM84.2392 105.04C84.7592 105.56 85.4192 105.82 86.2192 105.82C87.0192 105.82 87.6792 105.56 88.1992 105.04C88.7326 104.507 88.9992 103.827 88.9992 103C88.9992 102.173 88.7326 101.5 88.1992 100.98C87.6792 100.447 87.0192 100.18 86.2192 100.18C85.4192 100.18 84.7592 100.447 84.2392 100.98C83.7192 101.5 83.4592 102.173 83.4592 103C83.4592 103.827 83.7192 104.507 84.2392 105.04ZM93.3988 108V93.4H95.9788V108H93.3988ZM106.86 106.76C105.833 107.773 104.58 108.28 103.1 108.28C101.62 108.28 100.367 107.773 99.3402 106.76C98.3268 105.733 97.8202 104.48 97.8202 103C97.8202 101.52 98.3268 100.273 99.3402 99.26C100.367 98.2333 101.62 97.72 103.1 97.72C104.58 97.72 105.833 98.2333 106.86 99.26C107.887 100.273 108.4 101.52 108.4 103C108.4 104.48 107.887 105.733 106.86 106.76ZM101.16 104.98C101.68 105.5 102.327 105.76 103.1 105.76C103.873 105.76 104.52 105.5 105.04 104.98C105.56 104.46 105.82 103.8 105.82 103C105.82 102.2 105.56 101.54 105.04 101.02C104.52 100.5 103.873 100.24 103.1 100.24C102.327 100.24 101.68 100.5 101.16 101.02C100.653 101.54 100.4 102.2 100.4 103C100.4 103.8 100.653 104.46 101.16 104.98ZM112.795 99.72C113.035 99.08 113.428 98.6 113.975 98.28C114.535 97.96 115.155 97.8 115.835 97.8V100.68C115.048 100.587 114.342 100.747 113.715 101.16C113.102 101.573 112.795 102.26 112.795 103.22V108H110.215V98H112.795V99.72ZM119.153 104.06C119.5 105.313 120.44 105.94 121.973 105.94C122.96 105.94 123.706 105.607 124.213 104.94L126.293 106.14C125.306 107.567 123.853 108.28 121.933 108.28C120.28 108.28 118.953 107.78 117.953 106.78C116.953 105.78 116.453 104.52 116.453 103C116.453 101.493 116.946 100.24 117.933 99.24C118.92 98.2267 120.186 97.72 121.733 97.72C123.2 97.72 124.406 98.2267 125.353 99.24C126.313 100.253 126.793 101.507 126.793 103C126.793 103.333 126.76 103.687 126.693 104.06H119.153ZM119.113 102.06H124.213C124.066 101.38 123.76 100.873 123.293 100.54C122.84 100.207 122.32 100.04 121.733 100.04C121.04 100.04 120.466 100.22 120.013 100.58C119.56 100.927 119.26 101.42 119.113 102.06ZM87.2188 119V133H84.4788V123.92L80.5388 130.42H80.2188L76.2788 123.94V133H73.5188V119H76.3588L80.3788 125.62L84.3788 119H87.2188ZM98.2273 131.76C97.2007 132.773 95.9473 133.28 94.4673 133.28C92.9873 133.28 91.734 132.773 90.7073 131.76C89.694 130.733 89.1873 129.48 89.1873 128C89.1873 126.52 89.694 125.273 90.7073 124.26C91.734 123.233 92.9873 122.72 94.4673 122.72C95.9473 122.72 97.2007 123.233 98.2273 124.26C99.254 125.273 99.7673 126.52 99.7673 128C99.7673 129.48 99.254 130.733 98.2273 131.76ZM92.5273 129.98C93.0473 130.5 93.694 130.76 94.4673 130.76C95.2407 130.76 95.8873 130.5 96.4073 129.98C96.9273 129.46 97.1873 128.8 97.1873 128C97.1873 127.2 96.9273 126.54 96.4073 126.02C95.8873 125.5 95.2407 125.24 94.4673 125.24C93.694 125.24 93.0473 125.5 92.5273 126.02C92.0207 126.54 91.7673 127.2 91.7673 128C91.7673 128.8 92.0207 129.46 92.5273 129.98ZM104.162 124.72C104.402 124.08 104.796 123.6 105.342 123.28C105.902 122.96 106.522 122.8 107.202 122.8V125.68C106.416 125.587 105.709 125.747 105.082 126.16C104.469 126.573 104.162 127.26 104.162 128.22V133H101.582V123H104.162V124.72ZM110.52 129.06C110.867 130.313 111.807 130.94 113.34 130.94C114.327 130.94 115.073 130.607 115.58 129.94L117.66 131.14C116.673 132.567 115.22 133.28 113.3 133.28C111.647 133.28 110.32 132.78 109.32 131.78C108.32 130.78 107.82 129.52 107.82 128C107.82 126.493 108.313 125.24 109.3 124.24C110.287 123.227 111.553 122.72 113.1 122.72C114.567 122.72 115.773 123.227 116.72 124.24C117.68 125.253 118.16 126.507 118.16 128C118.16 128.333 118.127 128.687 118.06 129.06H110.52ZM110.48 127.06H115.58C115.433 126.38 115.127 125.873 114.66 125.54C114.207 125.207 113.687 125.04 113.1 125.04C112.407 125.04 111.833 125.22 111.38 125.58C110.927 125.927 110.627 126.42 110.48 127.06Z" fill="#141414"/>
<defs>
<filter id="filter0_d_1_784" x="76.5" y="50" width="38" height="38" filterUnits="userSpaceOnUse" color-interpolation-filters="sRGB">
<feFlood flood-opacity="0" result="BackgroundImageFix"/>
<feColorMatrix in="SourceAlpha" type="matrix" values="0 0 0 0 0 0 0 0 0 0 0 0 0 0 0 0 0 0 127 0" result="hardAlpha"/>
<feOffset dy="4"/>
<feGaussianBlur stdDeviation="2"/>
<feComposite in2="hardAlpha" operator="out"/>
<feColorMatrix type="matrix" values="0 0 0 0 0 0 0 0 0 0 0 0 0 0 0 0 0 0 0.25 0"/>
<feBlend mode="normal" in2="BackgroundImageFix" result="effect1_dropShadow_1_784"/>
<feBlend mode="normal" in="SourceGraphic" in2="effect1_dropShadow_1_784" result="shape"/>
</filter>
<clipPath id="clip0_1_784">
<rect width="30" height="30" fill="white" transform="translate(80.5 50)"/>
</clipPath>
</defs>
</svg>
